:version 1.10
:name ASF
:units
  mass 1
  length 1
  angle deg
:documentation
  ASF file generated by Kaydara
:root
  axis xyz
  order  tx ty tz rx ry rz
  position 0 0 0
  orientation 0 0 0
:bonedata
  begin
    id 1
    name RightUpLegDummy
    direction -1 2.30186e-007 8.31532e-007
    length 4.04083
    axis 0 0 0 xyz
  end
  begin
    id 2
    name RightUpLeg
    direction -0.000919234 -0.999985 0.00544864
    length 17.4221
    axis -3.80308 -0.00076134 -0.0523649 xyz
    dof rx ry rz
  end
  begin
    id 3
    name RightLeg
    direction -0.000919271 -0.999984 -0.00555045
    length 17.1239
    axis 4.00314 0.0181274 -0.183583 xyz
    dof rx ry rz
  end
  begin
    id 4
    name RightFoot
    direction -2.57843e-005 -4.04509e-007 1
    length 6.72091
    axis 8.18909e-005 -0.122003 -0.403008 xyz
    dof rx ry rz
  end
  begin
    id 5
    name RightToes
    direction 0.00116825 -0.014069 0.9999
    length 3.85082
    axis 0.000514414 0.540638 -0.356797 xyz
    dof rx ry rz
  end
  begin
    id 6
    name SpineDummy
    direction 0.0168869 0.966876 -0.254689
    length 6.99894
    axis 0 0 0 xyz
  end
  begin
    id 7
    name Spine
    direction -0.0132008 0.999903 0.00446247
    length 11.1999
    axis -0.00148109 0.00725429 0.756411 xyz
    dof rx ry rz
  end
  begin
    id 8
    name Spine1
    direction 0 0 0
    length 0
    axis -0.000934958 0.0245693 1.46543 xyz
    dof rx ry rz
  end
  begin
    id 9
    name HEadDummy
    direction -0.0255732 0.999672 0.00128215
    length 3.43865
    axis -0.000934958 0.0245693 1.46543 xyz
  end
  begin
    id 10
    name HEad
    direction -0.0472656 0.980052 0.19304
    length 5.12695
    axis -0.000934954 0.0245693 1.46543 xyz
    dof rx ry rz
  end
  begin
    id 11
    name LeftShoulder1Dummy
    direction 0.953098 0.301717 -0.023914
    length 3.68488
    axis -0.000934958 0.0245693 1.46543 xyz
  end
  begin
    id 12
    name LeftShoulder1
    direction 0.962466 0.271167 0.0112566
    length 3.13809
    axis -0.000934958 0.0245693 1.46543 xyz
    dof rx ry rz
  end
  begin
    id 13
    name LeftArm
    direction 0.999943 0.00455037 -0.00961766
    length 11.3419
    axis -23.1648 0.685459 1.22814 xyz
    dof rx ry rz
  end
  begin
    id 14
    name LeftForeArm
    direction 0.999332 0.0131969 0.0340885
    length 8.70632
    axis -9.90633 0.618216 0.0826942 xyz
    dof rx ry rz
  end
  begin
    id 15
    name LeftHand
    direction 0.994373 -0.0366703 0.0993905
    length 5.32135
    axis 0.00675269 0.680415 0.445699 xyz
    dof rx ry rz
  end
  begin
    id 16
    name RightShoulderDummy
    direction -0.967298 0.252589 -0.0230903
    length 3.68488
    axis -0.000934958 0.0245693 1.46543 xyz
  end
  begin
    id 17
    name RightShoulder
    direction -0.975062 0.221602 0.0120823
    length 3.13809
    axis 0.216257 0.0246515 1.45863 xyz
    dof rx ry rz
  end
  begin
    id 18
    name RightArm
    direction -0.99886 -0.00851186 -0.0469687
    length 10.3947
    axis -23.196 0.23503 -0.532632 xyz
    dof rx ry rz
  end
  begin
    id 19
    name RightForeArm
    direction -0.99909 0.00114866 0.0426317
    length 8.68355
    axis -9.91764 -0.134943 0.610517 xyz
    dof rx ry rz
  end
  begin
    id 20
    name RightHand
    direction -0.992888 -0.0489538 0.10852
    length 5.28593
    axis -0.00275396 -0.197403 0.246414 xyz
    dof rx ry rz
  end
  begin
    id 21
    name LeftUpLegDummy
    direction 1 -2.30186e-007 -8.31532e-007
    length 4.04083
    axis 0 0 0 xyz
  end
  begin
    id 22
    name LeftUpLeg
    direction -0.000920097 -1 2.79241e-006
    length 17.4221
    axis -3.48782 0.00143434 -0.0532288 xyz
    dof rx ry rz
  end
  begin
    id 23
    name LeftLeg
    direction -0.000920097 -1 2.7912e-006
    length 17.1239
    axis 3.68162 -0.00806512 -0.0529896 xyz
    dof rx ry rz
  end
  begin
    id 24
    name LeftFoot
    direction -2.57845e-005 -3.987e-007 1
    length 6.72091
    axis 3.02372e-005 -0.00147829 -0.214229 xyz
    dof rx ry rz
  end
  begin
    id 25
    name LeftToes
    direction 0.00813577 -0.00488255 0.999955
    length 3.85048
    axis 3.89895e-005 -0.0014783 -0.214229 xyz
    dof rx ry rz
  end
:hierarchy
  begin
    root RightUpLegDummy SpineDummy LeftUpLegDummy
    RightUpLegDummy RightUpLeg
    RightUpLeg RightLeg
    RightLeg RightFoot
    RightFoot RightToes
    SpineDummy Spine
    Spine Spine1
    Spine1 HEadDummy LeftShoulder1Dummy RightShoulderDummy
    HEadDummy HEad
    LeftShoulder1Dummy LeftShoulder1
    LeftShoulder1 LeftArm
    LeftArm LeftForeArm
    LeftForeArm LeftHand
    RightShoulderDummy RightShoulder
    RightShoulder RightArm
    RightArm RightForeArm
    RightForeArm RightHand
    LeftUpLegDummy LeftUpLeg
    LeftUpLeg LeftLeg
    LeftLeg LeftFoot
    LeftFoot LeftToes
  end

:SAMPLES-PER-SECOND 30
:FULLY-SPECIFIED
:DEGREES
43
root  31.6046 34.6598 -36.2822 9.39035 -45.6843 0.406587
RightUpLeg  -6.82439 -16.7932 2.27102
RightLeg  4.25594 -1.7891 -0.0168411
RightFoot  2.02499 0.0127254 0.0724687
RightToes  -19.9175 -0.0730792 -0.172924
Spine  -2.90483 -0.176822 0.339044
Spine1  -5.86975 -0.293491 1.29036
HEad  -57.3547 -5.37006 6.32421
LeftShoulder1  -1.94126e-019 -3.10601e-018 -2.51263e-017
LeftArm  -12.2652 26.6942 -82.7535
LeftForeArm  34.5298 -16.6782 -2.68443
LeftHand  -0.451816 -1.57351 7.37505
RightShoulder  -4.96962e-017 0 -2.36833e-017
RightArm  -33.5978 -25.9537 76.6393
RightForeArm  54.6715 13.8909 1.291
RightHand  -0.300148 -2.08043 -10.4307
LeftUpLeg  -7.06362 5.78197 -0.701842
LeftLeg  5.03724 14.273 0.333539
LeftFoot  3.09709 -0.0319868 0.924454
LeftToes  -16.3917 1.34695e-006 1.12385e-007
44
root  31.6057 34.6581 -36.2862 9.37613 -45.7101 0.410344
RightUpLeg  -6.83583 -16.8153 2.26824
RightLeg  4.28552 -1.7563 -0.0174199
RightFoot  2.00503 0.0127097 0.0726941
RightToes  -19.909 -0.0730792 -0.172924
Spine  -2.91393 -0.178748 0.349029
Spine1  -5.88807 -0.296407 1.3102
HEad  -57.3079 -5.42237 6.33996
LeftShoulder1  -1.94126e-019 -3.10601e-018 -2.51263e-017
LeftArm  -12.2905 26.6982 -82.7683
LeftForeArm  34.564 -16.6988 -2.68934
LeftHand  -0.451679 -1.59438 7.33679
RightShoulder  -4.96962e-017 0 -2.36833e-017
RightArm  -33.6476 -25.9894 76.6426
RightForeArm  54.6827 13.8564 1.29485
RightHand  -0.299084 -2.12252 -10.4481
LeftUpLeg  -7.0667 5.77718 -0.702283
LeftLeg  5.06378 14.3162 0.34109
LeftFoot  3.05155 -0.0318418 0.922201
LeftToes  -16.2403 1.34695e-006 1.12385e-007
45
root  31.6086 34.6567 -36.2894 9.36001 -45.7324 0.412536
RightUpLeg  -6.83756 -16.8005 2.2617
RightLeg  4.30643 -1.74114 -0.0176652
RightFoot  1.99204 0.0126587 0.0734229
RightToes  -19.8429 -0.0730792 -0.172924
Spine  -2.92129 -0.179349 0.360393
Spine1  -5.90299 -0.297528 1.333
HEad  -57.2674 -5.41248 6.32244
LeftShoulder1  -1.94126e-019 -3.10601e-018 -2.51263e-017
LeftArm  -12.3181 26.7024 -82.7877
LeftForeArm  34.5657 -16.6967 -2.69117
LeftHand  -0.449335 -1.61072 7.39985
RightShoulder  -4.96962e-017 0 -2.36833e-017
RightArm  -33.722 -25.9993 76.6475
RightForeArm  54.7672 13.8313 1.29746
RightHand  -0.300149 -2.18102 -10.4019
LeftUpLeg  -7.06274 5.76718 -0.7041
LeftLeg  5.0804 14.3374 0.345704
LeftFoot  3.05676 -0.0316849 0.919762
LeftToes  -16.3514 1.34695e-006 1.12385e-007
46
root  31.6111 34.6565 -36.2923 9.33988 -45.7574 0.414078
RightUpLeg  -6.83339 -16.7671 2.25491
RightLeg  4.32066 -1.74642 -0.0153901
RightFoot  1.98665 0.012629 0.0738469
RightToes  -19.8858 -0.0730792 -0.172924
Spine  -2.92896 -0.179158 0.371181
Spine1  -5.91854 -0.296876 1.35785
HEad  -57.2193 -5.3893 6.28749
LeftShoulder1  -1.94126e-019 -3.10601e-018 -2.51263e-017
LeftArm  -12.3526 26.727 -82.7986
LeftForeArm  34.5016 -16.7567 -2.70173
LeftHand  -0.447181 -1.55473 7.4225
RightShoulder  -4.96962e-017 0 -2.36833e-017
RightArm  -33.8031 -25.9938 76.6444
RightForeArm  54.8372 13.79 1.30742
RightHand  -0.29943 -2.11659 -10.4111
LeftUpLeg  -7.04904 5.78692 -0.705302
LeftLeg  5.08398 14.3404 0.347362
LeftFoot  3.0811 -0.0315488 0.917646
LeftToes  -16.5061 1.34695e-006 1.12385e-007
47
root  31.6139 34.6559 -36.2936 9.32384 -45.7836 0.415769
RightUpLeg  -6.8259 -16.7746 2.24841
RightLeg  4.31974 -1.71115 -0.0190404
RightFoot  1.9787 0.0126058 0.0741777
RightToes  -19.8807 -0.0730792 -0.172924
Spine  -2.93771 -0.177562 0.383007
Spine1  -5.93601 -0.292702 1.38232
HEad  -57.1698 -5.34609 6.20855
LeftShoulder1  -1.94126e-019 -3.10601e-018 -2.51263e-017
LeftArm  -12.3993 26.7739 -82.8005
LeftForeArm  34.5024 -16.8255 -2.71086
LeftHand  -0.446401 -1.58346 7.41214
RightShoulder  -4.96962e-017 0 -2.36833e-017
RightArm  -33.8624 -26.0102 76.6636
RightForeArm  54.8611 13.8137 1.30282
RightHand  -0.299637 -2.11993 -10.3972
LeftUpLeg  -7.03056 5.8066 -0.710338
LeftLeg  5.07993 14.3435 0.346764
LeftFoot  3.05612 -0.0314658 0.916357
LeftToes  -16.4705 1.34695e-006 1.12385e-007
48
root  31.6169 34.6553 -36.2929 9.29874 -45.8113 0.41802
RightUpLeg  -6.81831 -16.7722 2.23578
RightLeg  4.3414 -1.69655 -0.0202911
RightFoot  1.97285 0.0125888 0.0744206
RightToes  -19.8723 -0.0730792 -0.172924
Spine  -2.94675 -0.168386 0.397391
Spine1  -5.95428 -0.273438 1.41179
HEad  -57.1759 -5.30784 6.13866
LeftShoulder1  -1.94126e-019 -3.10601e-018 -2.51263e-017
LeftArm  -12.4732 26.8055 -82.8144
LeftForeArm  34.522 -16.8429 -2.7116
LeftHand  -0.445376 -1.57833 7.39829
RightShoulder  -4.96962e-017 0 -2.36833e-017
RightArm  -33.8416 -26.0536 76.6701
RightForeArm  54.7406 13.8461 1.29575
RightHand  -0.296713 -2.04743 -10.4832
LeftUpLeg  -7.00798 5.81766 -0.716997
LeftLeg  5.07307 14.3527 0.345745
LeftFoot  3.05513 -0.0314825 0.916616
LeftToes  -16.6596 1.34695e-006 1.12385e-007
49
root  31.6201 34.6546 -36.2914 9.27023 -45.8566 0.428115
RightUpLeg  -6.80483 -16.7085 2.21627
RightLeg  4.35041 -1.72161 -0.0166153
RightFoot  1.97082 0.0125776 0.0745805
RightToes  -19.9039 -0.0730792 -0.172924
Spine  -2.95602 -0.160603 0.411907
Spine1  -5.97297 -0.256247 1.44217
HEad  -57.1845 -5.21486 6.06264
LeftShoulder1  -1.94126e-019 -3.10601e-018 -2.51263e-017
LeftArm  -12.5364 26.8442 -82.8349
LeftForeArm  34.4482 -16.8031 -2.70529
LeftHand  -0.44396 -1.57193 7.4012
RightShoulder  -4.96962e-017 0 -2.36833e-017
RightArm  -33.7893 -26.0662 76.6646
RightForeArm  54.6888 13.867 1.2908
RightHand  -0.29539 -2.07743 -10.5231
LeftUpLeg  -6.98115 5.84286 -0.728761
LeftLeg  5.07037 14.3787 0.344189
LeftFoot  3.00155 -0.0307024 0.904491
LeftToes  -16.5225 1.34695e-006 1.12385e-007
50
root  31.6211 34.6539 -36.2872 9.25094 -45.9109 0.436994
RightUpLeg  -6.803 -16.6556 2.19636
RightLeg  4.36978 -1.72158 -0.0169743
RightFoot  1.95143 0.0125719 0.0746625
RightToes  -19.8962 -0.0730792 -0.172924
Spine  -2.96722 -0.14755 0.427671
Spine1  -5.99548 -0.228783 1.47361
HEad  -57.1907 -5.12912 6.02925
LeftShoulder1  -1.94126e-019 -3.10601e-018 -2.51263e-017
LeftArm  -12.6223 26.8746 -82.8589
LeftForeArm  34.4709 -16.7322 -2.69697
LeftHand  -0.442553 -1.55805 7.39949
RightShoulder  -4.96962e-017 0 -2.36833e-017
RightArm  -33.7634 -26.0727 76.6463
RightForeArm  54.6893 13.8587 1.2928
RightHand  -0.29588 -2.0584 -10.5072
LeftUpLeg  -6.95671 5.80329 -0.739801
LeftLeg  5.0776 14.4638 0.347994
LeftFoot  2.97834 -0.0306228 0.903254
LeftToes  -16.2798 1.34695e-006 1.12385e-007
51
root  31.6202 34.653 -36.2809 9.23227 -45.979 0.442465
RightUpLeg  -6.79254 -16.6001 2.17453
RightLeg  4.38411 -1.71464 -0.0189504
RightFoot  1.96065 0.0125712 0.0746719
RightToes  -19.8935 -0.0730792 -0.172924
Spine  -2.98448 -0.134276 0.448944
Spine1  -6.03005 -0.20019 1.51565
HEad  -57.1744 -5.06248 5.9424
LeftShoulder1  -1.94126e-019 -3.10601e-018 -2.51263e-017
LeftArm  -12.7062 26.9255 -82.9037
LeftForeArm  34.4847 -16.61 -2.68065
LeftHand  -0.441719 -1.56432 7.37781
RightShoulder  -4.96962e-017 0 -2.36833e-017
RightArm  -33.7792 -26.0627 76.6102
RightForeArm  54.679 13.8307 1.29857
RightHand  -0.296912 -2.0822 -10.477
LeftUpLeg  -6.93159 5.89031 -0.756038
LeftLeg  5.08696 14.4344 0.349631
LeftFoot  2.98884 -0.0306999 0.904452
LeftToes  -16.4487 1.34695e-006 1.12385e-007
52
root  31.6184 34.6522 -36.2721 9.21919 -46.0171 0.45012
RightUpLeg  -6.79053 -16.5665 2.15296
RightLeg  4.4158 -1.71306 -0.0209366
RightFoot  1.94397 0.0125753 0.0746136
RightToes  -19.9222 -0.0730792 -0.172924
Spine  -3.0066 -0.126965 0.475572
Spine1  -6.07451 -0.183478 1.56757
HEad  -57.193 -4.99781 5.92056
LeftShoulder1  -1.94126e-019 -3.10601e-018 -2.51263e-017
LeftArm  -12.7856 26.998 -82.9649
LeftForeArm  34.5723 -16.5023 -2.66241
LeftHand  -0.440483 -1.55487 7.36823
RightShoulder  -4.96962e-017 0 -2.36833e-017
RightArm  -33.8187 -26.066 76.5489
RightForeArm  54.6965 13.8023 1.30192
RightHand  -0.297551 -2.04514 -10.4595
LeftUpLeg  -6.92827 5.96839 -0.770789
LeftLeg  5.11998 14.416 0.355243
LeftFoot  2.93106 -0.0296819 0.888629
LeftToes  -16.4392 1.34695e-006 1.12385e-007
53
root  31.6152 34.6511 -36.2675 9.21281 -46.0173 0.455796
RightUpLeg  -6.78596 -16.5532 2.14283
RightLeg  4.43163 -1.72777 -0.0215106
RightFoot  1.92977 0.0125838 0.0744928
RightToes  -19.9491 -0.0730792 -0.172924
Spine  -3.02356 -0.129819 0.492515
Spine1  -6.10857 -0.18769 1.60109
HEad  -57.2375 -4.98489 5.90617
LeftShoulder1  -1.94126e-019 -3.10601e-018 -2.51263e-017
LeftArm  -12.8166 27.0434 -83.0028
LeftForeArm  34.5396 -16.4333 -2.65298
LeftHand  -0.438752 -1.56332 7.38888
RightShoulder  -4.96962e-017 0 -2.36833e-017
RightArm  -33.8477 -26.0809 76.5281
RightForeArm  54.6727 13.8081 1.29874
RightHand  -0.297456 -2.08689 -10.4684
LeftUpLeg  -6.92472 5.98166 -0.77642
LeftLeg  5.13773 14.4014 0.362526
LeftFoot  2.92836 -0.0295886 0.887179
LeftToes  -16.5403 1.34695e-006 1.12385e-007
54
root  31.6114 34.6496 -36.2584 9.20321 -45.9701 0.469027
RightUpLeg  -6.78062 -16.5669 2.12497
RightLeg  4.46467 -1.76126 -0.0229557
RightFoot  1.89822 0.0125963 0.0743146
RightToes  -19.9399 -0.0730792 -0.172924
Spine  -3.05152 -0.139078 0.519399
Spine1  -6.16486 -0.204141 1.6537
HEad  -57.3032 -4.99342 5.94863
LeftShoulder1  -1.94126e-019 -3.10601e-018 -2.51263e-017
LeftArm  -12.8197 27.1018 -83.06
LeftForeArm  34.5569 -16.3699 -2.64566
LeftHand  -0.436553 -1.53827 7.41811
RightShoulder  -4.96962e-017 0 -2.36833e-017
RightArm  -33.9197 -26.1149 76.488
RightForeArm  54.677 13.8163 1.29585
RightHand  -0.297475 -2.08112 -10.4741
LeftUpLeg  -6.93016 5.94452 -0.786877
LeftLeg  5.17543 14.3755 0.370199
LeftFoot  2.90198 -0.029061 0.878978
LeftToes  -16.3688 1.34695e-006 1.12385e-007
55
root  31.6088 34.6483 -36.2514 9.19816 -45.9306 0.474788
RightUpLeg  -6.77717 -16.5708 2.11482
RightLeg  4.48995 -1.79491 -0.0242002
RightFoot  1.87543 0.0126124 0.074084
RightToes  -19.8938 -0.0730792 -0.172924
Spine  -3.06969 -0.147432 0.537244
Spine1  -6.20153 -0.219381 1.6886
HEad  -57.3334 -5.00872 6.03045
LeftShoulder1  -1.94126e-019 -3.10601e-018 -2.51263e-017
LeftArm  -12.8162 27.1235 -83.0866
LeftForeArm  34.6169 -16.3631 -2.64663
LeftHand  -0.435946 -1.54496 7.38457
RightShoulder  -4.96962e-017 0 -2.36833e-017
RightArm  -33.9533 -26.1316 76.4745
RightForeArm  54.6975 13.803 1.29862
RightHand  -0.296973 -2.06546 -10.4974
LeftUpLeg  -6.93979 5.96471 -0.791485
LeftLeg  5.20272 14.3377 0.377579
LeftFoot  2.8793 -0.0285521 0.871069
LeftToes  -16.4955 1.34695e-006 1.12385e-007
56
root  31.6057 34.6477 -36.2471 9.19908 -45.8904 0.479525
RightUpLeg  -6.76655 -16.5728 2.10971
RightLeg  4.49318 -1.83486 -0.0248611
RightFoot  1.88035 0.0126318 0.0738061
RightToes  -19.9727 -0.0730792 -0.172924
Spine  -3.08233 -0.15668 0.546849
Spine1  -6.22694 -0.237061 1.70785
HEad  -57.4058 -5.03338 6.13174
LeftShoulder1  -1.94126e-019 -3.10601e-018 -2.51263e-017
LeftArm  -12.7926 27.1448 -83.0879
LeftForeArm  34.6336 -16.4223 -2.6571
LeftHand  -0.435911 -1.57403 7.3326
RightShoulder  -4.96962e-017 0 -2.36833e-017
RightArm  -34.002 -26.137 76.4767
RightForeArm  54.7026 13.7826 1.3028
RightHand  -0.297274 -2.06872 -10.4972
LeftUpLeg  -6.94155 5.93877 -0.790271
LeftLeg  5.20782 14.3363 0.379387
LeftFoot  2.85225 -0.0281011 0.864059
LeftToes  -16.3889 1.34695e-006 1.12385e-007
57
root  31.5995 34.6473 -36.2407 9.20196 -45.8316 0.482409
RightUpLeg  -6.75796 -16.6269 2.10794
RightLeg  4.50805 -1.83302 -0.0253091
RightFoot  1.85136 0.0126542 0.0734862
RightToes  -19.8714 -0.0730792 -0.172924
Spine  -3.10369 -0.170089 0.558423
Spine1  -6.27001 -0.262651 1.73073
HEad  -57.3955 -5.04395 6.25318
LeftShoulder1  -1.94126e-019 -3.10601e-018 -2.51263e-017
LeftArm  -12.7924 27.1717 -83.0956
LeftForeArm  34.6999 -16.4775 -2.66584
LeftHand  -0.433771 -1.59183 7.37708
RightShoulder  -4.96962e-017 0 -2.36833e-017
RightArm  -34.1353 -26.1442 76.4982
RightForeArm  54.7507 13.7589 1.30681
RightHand  -0.298666 -2.09659 -10.4647
LeftUpLeg  -6.94073 5.87582 -0.789121
LeftLeg  5.22803 14.3166 0.382529
LeftFoot  2.87582 -0.0283195 0.867453
LeftToes  -16.3938 1.34695e-006 1.12385e-007
